<svg width="35" height="35" viewBox="0 0 35 35" fill="none" xmlns="http://www.w3.org/2000/svg">
<g id="Instagram " clip-path="url(#clip0_1212_6)">
<path id="Vector" d="M34.8948 10.2849C34.8096 8.42209 34.5137 7.14996 34.0812 6.03699C33.6419 4.86927 32.953 3.81157 32.0627 2.93732C31.1887 2.04704 30.1307 1.35784 28.963 0.918312C27.8498 0.485992 26.5779 0.190392 24.7151 0.105743C22.8489 0.0202942 22.2526 0 17.5 0C12.7474 0 12.1511 0.0202942 10.2849 0.105209C8.42209 0.190392 7.15023 0.48626 6.03699 0.918846C4.86927 1.35811 3.81157 2.04704 2.93732 2.93732C2.04704 3.8113 1.35784 4.869 0.918312 6.03672C0.485992 7.14996 0.190392 8.42209 0.105743 10.2846C0.0202942 12.1511 0 12.7472 0 17.4997C0 22.2526 0.0202942 22.8489 0.105743 24.7151C0.190659 26.5777 0.486526 27.8498 0.919113 28.963C1.35838 30.1305 2.04731 31.1884 2.93758 32.0624C3.81157 32.9527 4.86954 33.6416 6.03725 34.0809C7.15023 34.5137 8.42236 34.8093 10.2851 34.8945C12.1517 34.9797 12.7477 34.9997 17.5003 34.9997C22.2528 34.9997 22.8491 34.9797 24.7154 34.8945C26.5782 34.8093 27.85 34.5137 28.9633 34.0809C31.3139 33.1719 33.1722 31.3137 34.0812 28.963C34.514 27.8498 34.8096 26.5777 34.8948 24.7151C34.9797 22.8486 35 22.2526 35 17.5C35 12.7472 34.9797 12.1511 34.8948 10.2849ZM31.7447 24.5717C31.6669 26.278 31.3818 27.2046 31.1422 27.8212C30.5534 29.3475 29.3473 30.5537 27.8209 31.1425C27.2044 31.382 26.2778 31.6672 24.5715 31.7449C22.7266 31.8293 22.173 31.8469 17.5 31.8469C12.8267 31.8469 12.2734 31.8293 10.4283 31.7449C8.72223 31.6672 7.79564 31.382 7.1788 31.1425C6.41884 30.8619 5.73124 30.4146 5.16674 29.8333C4.58542 29.2688 4.13815 28.5814 3.8575 27.8212C3.61797 27.2046 3.33279 26.278 3.25508 24.5717C3.17097 22.7266 3.15308 22.173 3.15308 17.5003C3.15308 12.8273 3.17097 12.274 3.25508 10.4285C3.33305 8.72223 3.61797 7.79564 3.8575 7.17907C4.13815 6.41884 4.58569 5.73124 5.16674 5.16674C5.73124 4.58542 6.41884 4.13815 7.17907 3.85777C7.79564 3.61797 8.72223 3.33305 10.4285 3.25508C12.2737 3.17097 12.8273 3.15308 17.5 3.15308H17.4997C22.1725 3.15308 22.726 3.17097 24.5715 3.25535C26.2778 3.33305 27.2041 3.61824 27.8209 3.85777C28.5809 4.13841 29.2685 4.58569 29.833 5.16674C30.4143 5.73124 30.8616 6.41884 31.142 7.17907C31.3818 7.79564 31.6669 8.72223 31.7447 10.4285C31.8288 12.2737 31.8467 12.8273 31.8467 17.5C31.8467 22.173 31.829 22.7263 31.7447 24.5717Z" fill="#CCD6F6"/>
<g id="Vector_2" filter="url(#filter0_d_1212_6)">
<path d="M17.4997 8.51343C12.5367 8.51343 8.51341 12.537 8.51341 17.5C8.51341 22.463 12.5367 26.4863 17.4997 26.4863C22.463 26.4863 26.4863 22.463 26.4863 17.5C26.4863 12.537 22.463 8.51343 17.4997 8.51343ZM17.4997 23.3333C14.2783 23.333 11.6665 20.7214 11.6668 17.4997C11.6668 14.2783 14.2783 11.6665 17.5 11.6665C20.7217 11.6668 23.3332 14.2783 23.3332 17.4997C23.3332 20.7214 20.7214 23.3333 17.4997 23.3333Z" fill="#CCD6F6"/>
<path d="M17.4997 23.8333H17.4997C14.0022 23.833 11.1665 20.9976 11.1668 17.4997L17.4997 23.8333ZM17.4997 23.8333C20.9976 23.8333 23.8332 20.9976 23.8332 17.4997C23.8332 14.0021 20.9978 11.1668 17.5 11.1665H17.5M17.4997 23.8333L17.5 11.1665M17.5 11.1665C14.0022 11.1665 11.1668 14.0022 11.1668 17.4997L17.5 11.1665ZM9.01341 17.5C9.01341 12.8131 12.8129 9.01343 17.4997 9.01343C22.1868 9.01343 25.9863 12.8131 25.9863 17.5C25.9863 22.1869 22.1869 25.9863 17.4997 25.9863C12.8129 25.9863 9.01341 22.1869 9.01341 17.5Z" stroke="black"/>
</g>
<path id="Vector_3" d="M28.9414 8.15853C28.9414 9.31824 28.0012 10.2584 26.8415 10.2584C25.6815 10.2584 24.7413 9.31824 24.7413 8.15853C24.7413 6.99856 25.6815 6.05835 26.8415 6.05835C28.0012 6.05835 28.9414 6.99856 28.9414 8.15853Z" fill="url(#paint0_linear_1212_6)"/>
</g>
<defs>
<filter id="filter0_d_1212_6" x="4.51341" y="8.51343" width="25.9729" height="25.9729" filterUnits="userSpaceOnUse" color-interpolation-filters="sRGB">
<feFlood flood-opacity="0" result="BackgroundImageFix"/>
<feColorMatrix in="SourceAlpha" type="matrix" values="0 0 0 0 0 0 0 0 0 0 0 0 0 0 0 0 0 0 127 0" result="hardAlpha"/>
<feOffset dy="4"/>
<feGaussianBlur stdDeviation="2"/>
<feComposite in2="hardAlpha" operator="out"/>
<feColorMatrix type="matrix" values="0 0 0 0 0 0 0 0 0 0 0 0 0 0 0 0 0 0 0.25 0"/>
<feBlend mode="normal" in2="BackgroundImageFix" result="effect1_dropShadow_1212_6"/>
<feBlend mode="normal" in="SourceGraphic" in2="effect1_dropShadow_1212_6" result="shape"/>
</filter>
<linearGradient id="paint0_linear_1212_6" x1="25.3565" y1="9.6433" x2="28.3263" y2="6.67352" gradientUnits="userSpaceOnUse">
<stop offset="1" stop-color="#CCD6F6"/>
</linearGradient>
<clipPath id="clip0_1212_6">
<rect width="35" height="35" fill="white"/>
</clipPath>
</defs>
</svg>
