<svg width="35" height="35" viewBox="0 0 35 35" fill="none" xmlns="http://www.w3.org/2000/svg">
<g id="whatsapp" clip-path="url(#clip0_1212_11)">
<path id="Vector" d="M0.813095 34.2552L3.16936 25.6507C1.71592 23.1324 0.951416 20.2757 0.952484 17.3491C0.956223 8.1935 8.40687 0.744751 17.5622 0.744751C22.0051 0.74662 26.1753 2.47589 29.3113 5.61454C32.447 8.75319 34.1733 12.9252 34.1717 17.3624C34.1677 26.5178 26.716 33.9676 17.5622 33.9676C17.5617 33.9676 17.5625 33.9676 17.5622 33.9676H17.555C14.7753 33.9665 12.0441 33.2693 9.61812 31.9462L0.813095 34.2552ZM10.0259 28.9403L10.5303 29.2391C12.6494 30.4968 15.0791 31.1619 17.5569 31.1633H17.5622C25.171 31.1633 31.3639 24.9714 31.3671 17.3614C31.3684 13.6735 29.934 10.2056 27.3275 7.59696C24.7208 4.98836 21.255 3.55095 17.5673 3.54935C9.95244 3.54935 3.75976 9.74039 3.75682 17.3502C3.75576 19.958 4.48528 22.4974 5.86742 24.695L6.19587 25.2173L4.80091 30.3101L10.0259 28.9403Z" fill="white"/>
<g id="Group">
<path id="Vector_2" d="M0.813095 34.2552L3.16936 25.6507C1.71592 23.1324 0.951416 20.2757 0.952484 17.3491C0.956223 8.1935 8.40687 0.744751 17.5622 0.744751C22.0051 0.74662 26.1753 2.47589 29.3113 5.61454C32.447 8.75319 34.1733 12.9252 34.1717 17.3624C34.1677 26.5178 26.716 33.9676 17.5622 33.9676C17.5617 33.9676 17.5625 33.9676 17.5622 33.9676H17.555C14.7753 33.9665 12.0441 33.2693 9.61812 31.9462L0.813095 34.2552ZM10.0259 28.9403L10.5303 29.2391C12.6494 30.4968 15.0791 31.1619 17.5569 31.1633H17.5622C25.171 31.1633 31.3639 24.9714 31.3671 17.3614C31.3684 13.6735 29.934 10.2056 27.3275 7.59696C24.7208 4.98836 21.255 3.55095 17.5673 3.54935C9.95244 3.54935 3.75976 9.74039 3.75682 17.3502C3.75576 19.958 4.48528 22.4974 5.86742 24.695L6.19587 25.2173L4.80091 30.3101L10.0259 28.9403Z" fill="#CCD6F6"/>
<path id="Vector_3" fill-rule="evenodd" clip-rule="evenodd" d="M13.411 10.4075C13.1001 9.71639 12.7728 9.7025 12.4769 9.69049C12.235 9.68007 11.9581 9.68061 11.6817 9.68061C11.405 9.68061 10.9554 9.78475 10.5751 10.2C10.1946 10.6152 9.12222 11.6192 9.12222 13.6612C9.12222 15.7035 10.6096 17.6766 10.8171 17.9537C11.0245 18.2306 13.6881 22.5549 17.9064 24.2185C21.4122 25.6012 22.1254 25.3262 22.8865 25.257C23.6475 25.1878 25.3418 24.253 25.6876 23.2839C26.0337 22.3149 26.0337 21.4844 25.9298 21.3106C25.8259 21.1378 25.5493 21.0339 25.1343 20.8264C24.7193 20.619 22.679 19.6147 22.2985 19.4763C21.9179 19.3378 21.6413 19.2689 21.3647 19.6844C21.0878 20.0993 20.2931 21.0339 20.0509 21.3106C19.8087 21.588 19.5665 21.6227 19.1515 21.415C18.7366 21.207 17.3998 20.769 15.8142 19.3551C14.5805 18.2552 13.7474 16.8966 13.5052 16.4811C13.2633 16.0661 13.5012 15.861 13.6876 15.6343C14.0233 15.226 14.5864 14.492 14.7247 14.2153C14.8631 13.9381 14.7939 13.6959 14.6903 13.4882C14.5864 13.2807 13.7797 11.2283 13.411 10.4075Z" fill="#CCD6F6"/>
</g>
</g>
<defs>
<clipPath id="clip0_1212_11">
<rect width="35" height="35" fill="white"/>
</clipPath>
</defs>
</svg>
